<svg xmlns="http://www.w3.org/2000/svg" width="130" height="64">
<path style="fill:#fec401; stroke:none;" d="M5 32L15 32L15.25 30.5L15.6389 28.9444L15.8889 28L16.6111 26L17.6944 24L18.3333 23L19.6944 21.0833L20.4167 20.2222L22.0833 18.6944L24 17.3333L26 16.1111L27 15.6111L29 14.8889L30 14.6389L32 14.2222L34 14.1111L35 14.2222L37 14.6944L39 15.4167L40 15.8889L41 16.4167L43 17.6944L44.9167 19.2222L46.5833 21.0278L47.3056 22L48.5833 24L49.0833 24.9444L49.7222 26.5L50 28L51.5 28.2778L53 28.8333L53.9444 29.1944L54.5 29.5L56 30L55.2222 31.4722L54.6944 31.9722L53.8889 32.8333L52.1111 34.3889L50.6389 36.0833L49.6389 38L48.7222 40L48.1389 41L47.5278 42L45.9167 43.9722L44.9722 44.9167L43 46.5278L41 47.7222L40 48.1667L38 48.9722L36 49.5833L34 49.9167L32 49.9167L30 49.5833L29 49.3056L28 48.9722L27 48.5833L25 47.5833L23.0278 46.3056L22.0833 45.5833L20.3889 43.9167L19.6389 42.9722L18.8611 42L17.4722 40L16.5 38.0556L16.0833 36.5L16 35L15 34L5 34L5.02778 36.0556L5.08333 37.0556L5.41667 39L5.69444 40L6.38889 42L6.83333 43L7.25 44L7.77778 45L8.83333 47L9.38889 48L10.6944 50L11.4167 51L13.0833 52.9167L14.0278 53.7778L15 54.5833L17 55.9722L19 57.1667L20 57.7222L22 58.6111L24 59.3056L25 59.5833L27 59.9444L28 60.0556L30 60.3889L31 60.6111L33 60.8333L35 60.6111L36 60.3889L38 60.0556L39 59.9444L41 59.5833L42 59.3056L44 58.6111L46 57.75L47 57.2222L49 56.1389L50 55.5278L51 54.75L52.9722 52.9722L53.9167 52L55.5833 50L56.9722 48L58.1667 46L58.7222 45L59.1389 44L59.5556 43L59.8333 42L60.1389 41L60.3611 40.0556L60.75 38.5L61 37L59.6111 35.5L58.6667 34L58.3611 33.5L58 32L59 32L61 31L61 28.9444L60.9167 27L60.7778 26L60.5833 25L60.3056 24L59.6111 22L59.1667 21L58.2222 19L57.75 18L57.1389 17L56.5278 16L55.75 15L54.9167 14L53 12.0278L52 11.0833L50 9.41667L48 8.02778L47 7.41666L45 6.41666L44 6.02778L42 5.41667L41 5.19444L39 4.80556L37 4.38889L35 4.08333L33 4L31 4.08333L29 4.38889L28 4.63889L26 5.13889L25 5.38889L23 6.02778L22 6.38889L20 7.25L19 7.77778L17 8.86111L16 9.47222L15 10.25L14 11.0833L12.0833 13L10.4722 15L9.83333 16L8.63889 18L7.55556 20L7.08333 21L6.69444 22L6 24L5.41667 26L5.08333 28L5.02778 28.9444L5 29.9444L5 32z"/>
<path style="fill:#040301; stroke:none;" d="M34 28L33 29L33 37L38 37L38 30L43 30L45 30L47 30.0833L47.9444 30.2222L48.9444 30.4167L51 31L49.5 31.9722L47.9444 32.5556L46 32.9167L44 33L43 33L42.0556 33L39 33L39 35L44 35L46 35L48 35L50 34.9167L52 34.5L53.8889 33.5L54.6667 32.8056L55.6389 31.4722L56 30L54.5 29.0278L53.9444 28.8611L52.9444 28.4167L52 28.1667L51 27.8611L49 27.3889L47 27.0833L46 27.0278L45 27L43 27L41 27.0278L40 27.0833L38 27.3889L37.0556 27.6111L36.0556 27.7778L35.5 27.9167L34 28M80 27L80 29L85 29L85 27L80 27M114 27L114 30L109 30L109 32L114 32L114 37L119 37L119 32L126 32L126 30L119 30L119 27L114 27M58 32L58.1111 33.5L58.3333 34.0278L59.3333 35.6667L60.1111 36.2778L62 36.8889L63 36.9722L64 37L66 37L67 37L69 37L76 37L77 36L77 31L76 30L68 30L66 30L65 30L63 30.0833L61.0556 30.4444L59.5 31.0278L58 32M80 30L80 37L85 37L85 30L80 30M88 30L88 37L93 37L93 32L101 32L102 33L102 37L107 37L107 35.5L106.889 33.9444L106.278 32.1111L105.667 31.3333L104.889 30.7222L103 30.1111L101 30L100 30L99 30L96 30L88 30M5 32L5 34L8.05556 34L9 34L11 34.0278L12 34.0833L14 34.3889L15 34.6111L17 34.9167L18 34.9722L20 35L22 35L29 35L29 32L5 32z"/>
<path style="fill:#ffffff; opacity:1" d="M63 32L63 35L72 35L72 32L63 32z"/>
</svg>
