<?xml version="1.0" encoding="UTF-8" standalone="no"?>
<!DOCTYPE svg PUBLIC "-//W3C//DTD SVG 1.1//EN" "http://www.w3.org/Graphics/SVG/1.1/DTD/svg11.dtd">
<svg version="1.1" xmlns="http://www.w3.org/2000/svg" xmlns:xlink="http://www.w3.org/1999/xlink" preserveAspectRatio="xMidYMid meet" viewBox="0 0 500 600" width="500" height="600"><defs><path d="M-24.56 -28.12L538.88 -28.12L538.88 631.01L-24.56 631.01L-24.56 -28.12Z" id="d3YfupnhB2"></path><path d="M15.63 262.64L120.89 155.62L192.82 198.88L275.27 114.5L334.05 156.5L459.48 11.38L484.92 25.79L334.92 208.25L277.14 161.38L199.01 247.72L120.89 203.87L17.38 307.37L15.63 262.64Z" id="b3SoSU5M7V"></path><path d="M15.62 311.13L46.88 311.13L46.88 553.13L15.62 553.13L15.62 311.13Z" id="b2Dp1IKbj"></path><path d="M78.13 259.38L109.38 259.38L109.38 553.13L78.13 553.13L78.13 259.38Z" id="bpbuTQcGa"></path><path d="M140.63 240.08L171.88 240.08L171.88 553.13L140.63 553.13L140.63 240.08Z" id="ckqPa0kWJ"></path><path d="M203.13 253.13L234.38 253.13L234.38 553.12L203.13 553.12L203.13 253.13Z" id="a72NvY4UB"></path><path d="M265.63 187.5L296.88 187.5L296.88 553.13L265.63 553.13L265.63 187.5Z" id="c11q7FRk7"></path><path d="M328.13 213.82L359.38 213.82L359.38 553.13L328.13 553.13L328.13 213.82Z" id="f3BRLdMAal"></path><path d="M390.63 148.19L421.88 148.19L421.88 553.13L390.63 553.13L390.63 148.19Z" id="c21kXhnxsJ"></path><path d="M453.13 69.24L484.38 69.24L484.38 553.12L453.13 553.12L453.13 69.24Z" id="l2d2rOejXR"></path></defs><g><g><g><use xlink:href="#d3YfupnhB2" opacity="1" fill="#e95662" fill-opacity="1"></use></g><g><g><use xlink:href="#b3SoSU5M7V" opacity="1" fill-opacity="0" stroke="#000000" stroke-width="1" stroke-opacity="1"></use></g></g><g><use xlink:href="#b2Dp1IKbj" opacity="1" fill="#ffffff" fill-opacity="1"></use></g><g><use xlink:href="#bpbuTQcGa" opacity="1" fill="#ffffff" fill-opacity="1"></use></g><g><use xlink:href="#ckqPa0kWJ" opacity="1" fill="#ffffff" fill-opacity="1"></use></g><g><use xlink:href="#a72NvY4UB" opacity="1" fill="#ffffff" fill-opacity="1"></use></g><g><use xlink:href="#c11q7FRk7" opacity="1" fill="#ffffff" fill-opacity="1"></use></g><g><use xlink:href="#f3BRLdMAal" opacity="1" fill="#ffffff" fill-opacity="1"></use></g><g><use xlink:href="#c21kXhnxsJ" opacity="1" fill="#ffffff" fill-opacity="1"></use></g><g><use xlink:href="#l2d2rOejXR" opacity="1" fill="#ffffff" fill-opacity="1"></use></g></g></g></svg>