<?xml version="1.0" encoding="UTF-8" standalone="no"?>
<!DOCTYPE svg PUBLIC "-//W3C//DTD SVG 1.1//EN" "http://www.w3.org/Graphics/SVG/1.1/DTD/svg11.dtd">
<svg version="1.1" xmlns="http://www.w3.org/2000/svg" xmlns:xlink="http://www.w3.org/1999/xlink" preserveAspectRatio="xMidYMid meet" viewBox="0 0 500 600" width="500" height="600"><defs><path d="M-89.98 -72.53L567.49 -72.53L567.49 660.8L-89.98 660.8L-89.98 -72.53Z" id="cWjx4Y07d"></path><path d="M438.77 439.78L439.52 439.86L440.27 439.96L441 440.1L441.72 440.26L442.44 440.45L443.14 440.67L443.83 440.92L444.51 441.19L445.17 441.48L445.82 441.8L446.45 442.15L447.07 442.52L447.68 442.91L448.27 443.32L448.84 443.76L449.39 444.21L449.93 444.69L450.44 445.19L450.94 445.71L451.42 446.24L451.87 446.79L452.31 447.36L452.72 447.95L453.11 448.56L453.48 449.18L453.83 449.81L454.15 450.46L454.45 451.13L454.72 451.8L454.96 452.49L455.18 453.19L455.37 453.91L455.53 454.63L455.67 455.37L455.77 456.11L455.85 456.86L455.9 457.63L455.91 458.4L455.91 463.06L455.9 463.83L455.85 464.6L455.77 465.35L455.67 466.09L455.53 466.83L455.37 467.55L455.18 468.27L454.96 468.97L454.72 469.66L454.45 470.33L454.15 471L453.83 471.65L453.48 472.28L453.11 472.9L452.72 473.51L452.31 474.09L451.87 474.67L451.42 475.22L450.94 475.75L450.44 476.27L449.93 476.77L449.39 477.25L448.84 477.7L448.27 478.14L447.68 478.55L447.07 478.94L446.45 479.31L445.82 479.66L445.17 479.98L444.51 480.27L443.83 480.54L443.14 480.79L442.44 481.01L441.72 481.2L441 481.36L440.27 481.5L439.52 481.6L438.77 481.68L438.01 481.73L437.24 481.74L62.76 481.74L61.99 481.73L61.23 481.68L60.48 481.6L59.73 481.5L59 481.36L58.28 481.2L57.56 481.01L56.86 480.79L56.17 480.54L55.49 480.27L54.83 479.98L54.18 479.66L53.55 479.31L52.93 478.94L52.32 478.55L51.73 478.14L51.16 477.7L50.61 477.25L50.07 476.77L49.56 476.27L49.06 475.75L48.58 475.22L48.13 474.67L47.69 474.09L47.28 473.51L46.89 472.9L46.52 472.28L46.17 471.65L45.85 471L45.55 470.33L45.28 469.66L45.04 468.97L44.82 468.27L44.63 467.55L44.47 466.83L44.33 466.09L44.23 465.35L44.15 464.6L44.1 463.83L44.09 463.06L44.09 458.4L44.1 457.63L44.15 456.86L44.23 456.11L44.33 455.37L44.47 454.63L44.63 453.91L44.82 453.19L45.04 452.49L45.28 451.8L45.55 451.13L45.85 450.46L46.17 449.81L46.52 449.18L46.89 448.56L47.28 447.95L47.69 447.36L48.13 446.79L48.58 446.24L49.06 445.71L49.56 445.19L50.07 444.69L50.61 444.21L51.16 443.76L51.73 443.32L52.32 442.91L52.93 442.52L53.55 442.15L54.18 441.8L54.83 441.48L55.49 441.19L56.17 440.92L56.86 440.67L57.56 440.45L58.28 440.26L59 440.1L59.73 439.96L60.48 439.86L61.23 439.78L61.99 439.73L62.76 439.72L437.24 439.72L438.01 439.73L438.77 439.78ZM445.62 213.73L445.62 266.02L417.63 266.02L417.63 411.24L417.61 412.01L417.58 412.77L417.52 413.52L417.44 414.27L417.34 415L417.22 415.72L417.07 416.44L416.91 417.14L416.73 417.83L416.52 418.51L416.3 419.17L416.06 419.82L415.8 420.45L415.52 421.07L415.22 421.68L414.91 422.27L414.59 422.84L414.24 423.39L413.88 423.93L413.51 424.44L413.12 424.94L412.72 425.42L412.3 425.87L411.87 426.31L411.43 426.72L410.97 427.11L410.51 427.48L410.03 427.83L409.54 428.15L409.04 428.45L408.53 428.72L408.01 428.96L407.48 429.18L406.94 429.37L406.4 429.53L405.85 429.67L405.29 429.77L404.72 429.85L404.14 429.9L403.57 429.91L374.74 429.91L374.16 429.9L373.59 429.85L373.02 429.77L372.46 429.67L371.91 429.53L371.36 429.37L370.82 429.18L370.3 428.96L369.78 428.72L369.27 428.45L368.77 428.15L368.28 427.83L367.8 427.48L367.33 427.11L366.88 426.72L366.44 426.31L366.01 425.87L365.59 425.42L365.19 424.94L364.8 424.44L364.42 423.93L364.06 423.39L363.72 422.84L363.39 422.27L363.08 421.68L362.79 421.07L362.51 420.45L362.25 419.82L362.01 419.17L361.78 418.51L361.58 417.83L361.4 417.14L361.23 416.44L361.09 415.72L360.97 415L360.86 414.27L360.78 413.52L360.73 412.77L360.69 412.01L360.68 411.24L360.68 266.02L135.55 266.02L135.56 266.16L135.56 266.2L135.56 266.27L135.57 266.34L135.57 266.37L135.57 266.41L135.57 266.44L135.58 266.48L135.58 266.51L135.58 266.55L135.58 266.58L135.58 266.62L135.58 266.65L135.59 266.69L135.59 266.72L135.59 266.76L135.59 266.79L135.59 266.83L135.59 266.86L135.59 266.9L135.6 266.93L135.6 266.97L135.6 267L135.6 267.04L135.6 267.07L135.6 267.11L135.6 267.14L135.6 267.18L135.6 267.21L135.6 267.25L135.6 267.28L135.6 267.32L135.6 267.35L135.6 267.39L135.6 267.42L135.6 414.97L135.59 415.74L135.56 416.5L135.5 417.26L135.42 418L135.32 418.74L135.2 419.46L135.05 420.17L134.89 420.87L134.7 421.56L134.5 422.24L134.28 422.9L134.03 423.55L133.77 424.19L133.5 424.81L133.2 425.41L132.89 426L132.56 426.57L132.22 427.13L131.86 427.66L131.49 428.18L131.1 428.68L130.69 429.15L130.28 429.61L129.85 430.04L129.4 430.46L128.95 430.85L128.48 431.22L128 431.56L127.52 431.88L127.02 432.18L126.51 432.45L125.99 432.7L125.46 432.91L124.92 433.11L124.38 433.27L123.82 433.4L123.26 433.51L122.7 433.59L122.12 433.63L121.54 433.65L92.72 433.65L92.14 433.63L91.56 433.59L91 433.51L90.44 433.4L89.88 433.27L89.34 433.11L88.8 432.91L88.27 432.7L87.75 432.45L87.24 432.18L86.75 431.88L86.26 431.56L85.78 431.22L85.31 430.85L84.86 430.46L84.41 430.04L83.98 429.61L83.57 429.15L83.16 428.68L82.78 428.18L82.4 427.66L82.04 427.13L81.7 426.57L81.37 426L81.06 425.41L80.76 424.81L80.49 424.19L80.23 423.55L79.98 422.9L79.76 422.24L79.56 421.56L79.37 420.87L79.21 420.17L79.07 419.46L78.94 418.74L78.84 418L78.76 417.26L78.7 416.5L78.67 415.74L78.66 414.97L78.66 267.42L78.66 267.39L78.66 267.35L78.66 267.32L78.66 267.28L78.66 267.25L78.66 267.21L78.66 267.18L78.66 267.14L78.66 267.11L78.66 267.07L78.66 267.04L78.66 267L78.66 266.96L78.67 266.93L78.67 266.89L78.67 266.86L78.67 266.82L78.67 266.79L78.67 266.75L78.67 266.72L78.68 266.68L78.68 266.65L78.68 266.62L78.68 266.58L78.68 266.55L78.68 266.51L78.69 266.48L78.69 266.44L78.69 266.41L78.69 266.34L78.7 266.27L78.7 266.23L78.71 266.06L78.71 266.02L54.38 266.02L54.38 213.73L152.19 153.03L250 92.33L347.81 153.03L445.62 213.73ZM294.49 293.17L295.24 293.24L295.99 293.35L296.72 293.48L297.45 293.65L298.16 293.84L298.86 294.06L299.55 294.3L300.23 294.57L300.89 294.87L301.54 295.19L302.18 295.53L302.8 295.9L303.4 296.29L303.99 296.71L304.56 297.14L305.11 297.6L305.65 298.08L306.16 298.57L306.66 299.09L307.14 299.63L307.59 300.18L308.03 300.75L308.44 301.34L308.84 301.94L309.2 302.56L309.55 303.2L309.87 303.85L310.17 304.51L310.44 305.19L310.68 305.88L310.9 306.58L311.09 307.29L311.25 308.02L311.39 308.75L311.5 309.5L311.57 310.25L311.62 311.01L311.63 311.78L311.63 400.5L311.62 401.27L311.57 402.03L311.5 402.78L311.39 403.53L311.25 404.26L311.09 404.99L310.9 405.7L310.68 406.4L310.44 407.09L310.17 407.77L309.87 408.43L309.55 409.08L309.2 409.72L308.84 410.34L308.44 410.94L308.03 411.53L307.59 412.1L307.14 412.65L306.66 413.19L306.16 413.7L305.65 414.2L305.11 414.68L304.56 415.13L303.99 415.57L303.4 415.98L302.8 416.38L302.18 416.74L301.54 417.09L300.89 417.41L300.23 417.71L299.55 417.98L298.86 418.22L298.16 418.44L297.45 418.63L296.72 418.79L295.99 418.93L295.24 419.04L294.49 419.11L293.73 419.16L292.96 419.17L207.04 419.17L206.27 419.16L205.51 419.11L204.76 419.04L204.01 418.93L203.28 418.79L202.55 418.63L201.84 418.44L201.14 418.22L200.45 417.98L199.77 417.71L199.11 417.41L198.46 417.09L197.82 416.74L197.2 416.38L196.6 415.98L196.01 415.57L195.44 415.13L194.89 414.68L194.35 414.2L193.84 413.7L193.34 413.19L192.86 412.65L192.41 412.1L191.97 411.53L191.56 410.94L191.16 410.34L190.8 409.72L190.45 409.08L190.13 408.43L189.83 407.77L189.56 407.09L189.32 406.4L189.1 405.7L188.91 404.99L188.75 404.26L188.61 403.53L188.5 402.78L188.43 402.03L188.38 401.27L188.37 400.5L188.37 311.78L188.38 311.27L188.41 310.75L188.47 310.25L188.55 309.74L188.66 309.23L188.79 308.73L188.94 308.23L189.11 307.73L189.31 307.24L189.53 306.75L189.78 306.26L190.05 305.77L190.34 305.28L190.65 304.8L190.99 304.32L191.35 303.84L191.74 303.37L192.15 302.89L192.58 302.42L193.04 301.95L193.51 301.49L194.02 301.03L194.54 300.56L195.09 300.11L195.66 299.65L196.26 299.2L196.88 298.75L197.52 298.3L198.18 297.85L198.87 297.41L199.58 296.97L200.32 296.53L201.08 296.09L201.86 295.66L202.67 295.23L203.49 294.8L204.35 294.37L205.22 293.95L206.12 293.52L207.04 293.1L292.96 293.1L293.73 293.12L294.49 293.17ZM248.02 330.57L247.05 330.7L246.09 330.88L245.16 331.11L244.24 331.39L243.35 331.71L242.48 332.08L241.63 332.49L240.81 332.94L240.01 333.44L239.25 333.97L238.51 334.54L237.8 335.15L237.12 335.79L236.48 336.47L235.87 337.18L235.3 337.91L234.77 338.68L234.28 339.48L233.82 340.3L233.41 341.15L233.04 342.02L232.72 342.91L232.44 343.83L232.21 344.76L232.03 345.71L231.9 346.68L231.82 347.67L231.79 348.67L231.8 349.4L231.85 350.13L231.92 350.85L232.02 351.56L232.15 352.27L232.3 352.96L232.48 353.64L232.68 354.31L232.91 354.97L233.17 355.62L233.45 356.26L233.75 356.88L234.07 357.49L234.42 358.09L234.79 358.67L235.18 359.23L235.59 359.78L236.02 360.32L236.47 360.84L236.93 361.34L237.42 361.82L237.92 362.28L238.44 362.73L238.98 363.15L239.54 363.56L240.11 363.94L240.69 364.3L241.29 364.65L241.9 364.97L242.53 365.26L242.53 381.82L242.54 382.2L242.57 382.58L242.62 382.96L242.69 383.32L242.78 383.68L242.89 384.03L243.01 384.38L243.15 384.71L243.31 385.04L243.49 385.36L243.68 385.66L243.88 385.96L244.1 386.24L244.33 386.51L244.58 386.77L244.84 387.02L245.11 387.25L245.4 387.47L245.69 387.68L246 387.87L246.31 388.04L246.64 388.2L246.98 388.34L247.32 388.47L247.67 388.57L248.03 388.66L248.4 388.73L248.77 388.78L249.15 388.81L249.53 388.82L249.92 388.81L250.3 388.78L250.67 388.73L251.04 388.66L251.4 388.57L251.75 388.47L252.09 388.34L252.43 388.2L252.75 388.04L253.07 387.87L253.37 387.68L253.67 387.47L253.95 387.25L254.23 387.02L254.49 386.77L254.73 386.51L254.97 386.24L255.19 385.96L255.39 385.66L255.58 385.36L255.76 385.04L255.91 384.71L256.06 384.38L256.18 384.03L256.29 383.68L256.38 383.32L256.45 382.96L256.5 382.58L256.53 382.2L256.54 381.82L256.54 365.65L257.21 365.37L257.87 365.07L258.52 364.74L259.15 364.39L259.77 364.02L260.37 363.62L260.95 363.2L261.52 362.75L262.07 362.29L262.6 361.8L263.1 361.29L263.59 360.77L264.06 360.22L264.51 359.66L264.93 359.08L265.33 358.48L265.71 357.87L266.07 357.24L266.4 356.59L266.7 355.93L266.98 355.26L267.23 354.57L267.45 353.87L267.65 353.16L267.82 352.43L267.96 351.7L268.07 350.96L268.15 350.2L268.19 349.44L268.21 348.67L268.18 347.67L268.1 346.68L267.97 345.71L267.79 344.76L267.56 343.83L267.28 342.91L266.96 342.02L266.59 341.15L266.18 340.3L265.72 339.48L265.23 338.68L264.7 337.91L264.13 337.18L263.52 336.47L262.88 335.79L262.2 335.15L261.49 334.54L260.75 333.97L259.99 333.44L259.19 332.94L258.37 332.49L257.52 332.08L256.65 331.71L255.76 331.39L254.84 331.11L253.91 330.88L252.95 330.7L251.98 330.57L251 330.49L250 330.46L249 330.49L248.02 330.57ZM92.02 225.88L91.63 225.9L91.24 225.94L90.86 225.99L90.48 226.06L90.11 226.15L89.75 226.24L89.39 226.36L89.03 226.48L88.69 226.62L88.35 226.77L88.01 226.94L87.69 227.11L87.37 227.3L87.06 227.5L86.76 227.71L86.47 227.94L86.18 228.17L85.91 228.42L85.65 228.67L85.39 228.94L85.15 229.21L84.91 229.49L84.69 229.79L84.48 230.09L84.28 230.4L84.09 230.72L83.91 231.04L83.75 231.37L83.59 231.71L83.45 232.06L83.33 232.41L83.22 232.77L83.12 233.14L83.04 233.51L82.97 233.89L82.91 234.27L82.87 234.65L82.85 235.04L82.84 235.44L82.85 235.83L82.87 236.22L82.91 236.61L82.97 236.99L83.04 237.37L83.12 237.74L83.22 238.11L83.33 238.46L83.45 238.82L83.59 239.17L83.75 239.51L83.91 239.84L84.09 240.16L84.28 240.48L84.48 240.79L84.69 241.09L84.91 241.39L85.15 241.67L85.39 241.94L85.65 242.21L85.91 242.46L86.18 242.71L86.47 242.94L86.76 243.16L87.06 243.38L87.37 243.58L87.69 243.77L88.01 243.94L88.35 244.11L88.69 244.26L89.03 244.4L89.39 244.52L89.75 244.64L90.11 244.73L90.48 244.82L90.86 244.89L91.24 244.94L91.63 244.98L92.02 245L92.41 245.01L407.59 245.01L407.98 245L408.37 244.98L408.76 244.94L409.14 244.89L409.52 244.82L409.89 244.73L410.25 244.64L410.61 244.52L410.97 244.4L411.31 244.26L411.65 244.11L411.99 243.94L412.31 243.77L412.63 243.58L412.94 243.38L413.24 243.16L413.53 242.94L413.82 242.71L414.09 242.46L414.35 242.21L414.61 241.94L414.85 241.67L415.09 241.39L415.31 241.09L415.52 240.79L415.72 240.48L415.91 240.16L416.09 239.84L416.25 239.51L416.41 239.17L416.55 238.82L416.67 238.46L416.78 238.11L416.88 237.74L416.96 237.37L417.03 236.99L417.09 236.61L417.13 236.22L417.15 235.83L417.16 235.44L417.15 235.04L417.13 234.65L417.09 234.27L417.03 233.89L416.96 233.51L416.88 233.14L416.78 232.77L416.67 232.41L416.55 232.06L416.41 231.71L416.25 231.37L416.09 231.04L415.91 230.72L415.72 230.4L415.52 230.09L415.31 229.79L415.09 229.49L414.85 229.21L414.61 228.94L414.35 228.67L414.09 228.42L413.82 228.17L413.53 227.94L413.24 227.71L412.94 227.5L412.63 227.3L412.31 227.11L411.99 226.94L411.65 226.77L411.31 226.62L410.97 226.48L410.61 226.36L410.25 226.24L409.89 226.15L409.52 226.06L409.14 225.99L408.76 225.94L408.37 225.9L407.98 225.88L407.59 225.87L92.41 225.87L92.02 225.88Z" id="ddXF4UPcx"></path></defs><g><g><g><use xlink:href="#cWjx4Y07d" opacity="1" fill="#e95662" fill-opacity="1"></use></g><g><use xlink:href="#ddXF4UPcx" opacity="1" fill="#ffffff" fill-opacity="1"></use><g><use xlink:href="#ddXF4UPcx" opacity="1" fill-opacity="0" stroke="#000000" stroke-width="1" stroke-opacity="0"></use></g></g></g></g></svg>